<svg version="1.0" xmlns="http://www.w3.org/2000/svg"
 width="1280.000000pt" height="1020.000000pt" viewBox="0 0 1280.0 1020.0"
 preserveAspectRatio="xMidYMid meet">
<g transform="translate(0.0,1020.0) scale(0.1,-0.1)" fill="#3C3A36">
<path d="M4935 10091 c-6 -4 -50 -14 -100 -21 -106 -15 -262 -57 -370 -100
-600 -238 -1021 -772 -1109 -1404 -8 -60 -19 -113 -23 -117 -5 -5 -458 -10
-1008 -12 -998 -3 -1000 -3 -1080 -25 -269 -75 -459 -186 -655 -382 -205 -204
-342 -433 -439 -727 -34 -106 -81 -326 -81 -383 0 -21 -4 -42 -10 -45 -13 -8
-14 -5204 -1 -5237 5 -13 14 -66 21 -118 15 -118 68 -316 117 -435 55 -137 99
-220 179 -340 238 -359 545 -573 943 -657 81 -17 10081 -17 10162 0 395 84
700 295 940 651 152 226 266 522 299 781 7 52 16 105 21 118 13 33 12 5229 -1
5237 -5 3 -10 24 -10 45 0 60 -48 282 -86 399 -47 143 -168 385 -251 501 -90
127 -274 310 -391 389 -195 132 -406 209 -622 229 l-85 7 -5 320 c-5 309 -6
322 -28 367 -40 82 -138 154 -247 182 -51 14 -172 16 -900 16 -744 0 -848 -2
-896 -16 -110 -33 -188 -90 -237 -173 l-27 -46 -5 -325 -5 -325 -115 0 -115 0
-7 55 c-32 246 -83 418 -184 620 -202 407 -578 733 -1015 880 -97 33 -308 80
-359 80 -16 0 -32 5 -35 10 -8 12 -2167 14 -2180 1z m2206 -547 c262 -45 491
-164 679 -353 211 -211 332 -471 359 -776 6 -60 15 -189 21 -285 6 -96 13
-185 15 -197 l5 -23 1569 0 c1541 0 1569 0 1647 -20 326 -84 595 -377 715
-780 58 -193 54 23 57 -2805 2 -1770 -1 -2616 -8 -2671 -61 -472 -343 -868
-705 -992 -33 -11 -90 -25 -126 -31 -93 -16 -9845 -16 -9938 0 -225 37 -429
172 -588 389 -121 165 -214 408 -243 634 -7 55 -10 901 -8 2671 3 2400 4 2596
20 2665 67 294 175 506 348 681 111 112 222 182 365 230 l70 24 1220 5 1220 5
6 55 c4 30 12 138 18 240 22 357 50 483 153 680 175 339 499 578 878 650 87
17 177 18 1126 19 906 1 1042 -1 1125 -15z"/>
<path d="M4529 8293 c-47 -40 -69 -95 -69 -178 0 -83 22 -138 69 -178 l33 -27
1450 0 1450 0 38 38 c82 82 82 252 0 334 l-38 38 -1450 0 -1450 0 -33 -27z"/>
<path d="M5745 6940 c-126 -16 -268 -41 -370 -66 -755 -187 -1406 -704 -1760
-1399 -295 -579 -370 -1237 -215 -1880 122 -506 422 -1004 814 -1354 322 -287
660 -474 1091 -600 143 -43 355 -77 558 -92 436 -32 914 60 1323 256 565 269
1026 727 1280 1273 31 64 59 126 65 137 24 51 93 259 114 345 68 271 80 373
80 695 0 246 -3 296 -23 415 -93 545 -318 1009 -685 1410 -368 404 -883 699
-1413 811 -207 44 -276 51 -534 54 -140 2 -286 0 -325 -5z m530 -445 c299 -36
496 -94 760 -226 382 -190 703 -483 921 -840 455 -747 443 -1678 -31 -2409
-275 -425 -705 -758 -1182 -916 -228 -76 -391 -104 -648 -111 -290 -8 -504 21
-755 101 -752 241 -1337 872 -1516 1635 -84 359 -80 720 12 1086 66 263 218
575 392 805 79 103 268 297 377 385 468 378 1088 561 1670 490z"/>
<path d="M5830 6214 c-14 -2 -65 -9 -115 -15 -455 -56 -886 -273 -1161 -586
-269 -306 -450 -753 -480 -1181 -8 -116 6 -154 61 -178 77 -32 145 29 145 131
0 26 7 95 16 154 81 556 376 1012 808 1250 211 116 490 196 753 217 108 8 147
23 168 64 23 44 13 92 -26 124 -26 22 -40 26 -87 25 -31 -1 -68 -3 -82 -5z"/>
</g>
</svg>
